<svg xmlns="http://www.w3.org/2000/svg" viewBox="0 0 1024 1024">
<defs>
<linearGradient id="sun" gradientUnits="userSpaceOnUse" x1="5120" y1="7210" x2="5120" y2="3450">
<stop offset="0" stop-color="#ffe694"/><stop offset=".12" stop-color="#fee18a"/>
<stop offset=".53" stop-color="#fea33a"/><stop offset=".7" stop-color="#fc9328"/>
<stop offset=".87" stop-color="#fc8622"/><stop offset="1" stop-color="#fa7a15"/>
</linearGradient>
<linearGradient id="glow" gradientUnits="userSpaceOnUse" x1="512" y1="572" x2="512" y2="684">
<stop offset="0" stop-color="#0c0501" stop-opacity="0"/><stop offset=".32" stop-color="#0c0501" stop-opacity=".5"/>
<stop offset=".6" stop-color="#170a03" stop-opacity=".85"/><stop offset=".72" stop-color="#221004"/>
<stop offset=".82" stop-color="#1d0d05"/><stop offset=".92" stop-color="#120802" stop-opacity=".7"/>
<stop offset="1" stop-color="#120802" stop-opacity="0"/>
</linearGradient>
<linearGradient id="edge" gradientUnits="userSpaceOnUse" x1="512" y1="128" x2="512" y2="896">
<stop offset="0" stop-color="#fff" stop-opacity=".06"/><stop offset=".55" stop-color="#fff" stop-opacity=".015"/>
<stop offset="1" stop-color="#fff" stop-opacity="0"/>
</linearGradient>
<clipPath id="sq"><rect x="128" y="128" width="768" height="768" rx="144"/></clipPath>
</defs>
<g clip-path="url(#sq)">
<rect x="128" y="128" width="768" height="768" fill="#000"/>
<rect x="128" y="572" width="768" height="112" fill="url(#glow)"/>
<g transform="translate(0.000000,1024.000000) scale(0.100000,-0.100000)" fill="#000">
<path d="M1295 4408 c-10 -26 0 -773 10 -773 6 0 12 108 16 290 4 160 10 311
14 336 5 31 4 49 -4 53 -6 4 -11 27 -11 51 0 43 -15 69 -25 43z"/>
<path d="M1359 4418 c-5 -22 2 -361 9 -383 11 -38 43 -41 53 -5 6 25 6 24 10
-5 3 -20 9 -29 19 -26 14 3 39 3 80 1 8 -1 24 1 35 3 11 2 25 2 30 -2 6 -3 80
-4 165 -1 l155 5 3 38 c2 26 8 37 19 37 9 0 25 8 35 17 17 15 19 15 32 -2 19
-26 46 -13 46 23 0 37 9 46 30 27 13 -12 23 -13 44 -5 36 13 36 13 36 -9 0
-28 18 -36 39 -17 22 20 31 20 45 0 9 -11 29 -15 79 -15 75 0 87 4 87 32 0 25
57 27 76 2 13 -17 14 -17 20 5 3 12 14 22 24 22 22 0 54 35 45 50 -5 8 -11 8
-21 -1 -11 -9 -18 -8 -31 2 -12 11 -67 15 -226 18 -153 2 -216 7 -231 16 -14
9 -46 13 -94 11 -70 -3 -72 -2 -56 15 10 11 13 20 8 20 -5 1 9 5 31 9 30 6 42
4 48 -6 9 -16 43 -19 52 -3 5 7 14 4 27 -8 17 -15 21 -16 31 -3 15 19 272 26
294 8 10 -8 19 -6 36 9 12 11 30 23 40 26 9 4 17 15 17 25 0 10 5 23 12 30 8
8 8 15 -2 27 -11 13 -81 15 -581 15 -313 0 -569 -1 -570 -2z"/>
<path d="M2805 4396 c-16 -23 -15 -26 6 -55 25 -35 44 -30 70 16 24 44 19 58
-23 61 -30 3 -40 -1 -53 -22z"/>
<path d="M3119 4419 c-1 -2 -3 -17 -4 -34 -2 -16 -4 -32 -5 -35 -1 -3 -2 -8
-1 -13 1 -4 -10 -12 -25 -17 -14 -6 -23 -14 -20 -19 3 -5 -2 -24 -11 -42 -19
-37 -22 -259 -7 -441 l7 -87 45 -28 c24 -15 49 -27 54 -25 5 1 7 -17 5 -40 -2
-24 -8 -43 -13 -43 -5 0 -14 -4 -21 -8 -6 -4 -15 -3 -18 3 -5 8 -11 7 -21 -1
-14 -12 -9 -33 6 -24 5 3 11 1 15 -4 3 -6 12 -8 20 -4 8 3 15 0 15 -6 0 -6 0
-14 0 -18 0 -5 -6 -8 -13 -8 -21 -1 -58 -26 -52 -35 11 -18 -20 -22 -143 -19
-70 1 -167 2 -216 1 -73 -2 -91 1 -101 15 -11 15 -15 15 -43 -5 -17 -13 -33
-18 -36 -13 -8 13 -4 64 7 78 5 7 5 18 1 24 -10 17 -34 -18 -27 -39 4 -10 2
-14 -2 -9 -5 4 -17 0 -27 -10 -21 -19 -28 -14 -43 29 -15 47 -33 46 -52 -1
-16 -42 -30 -50 -50 -30 -14 14 -34 3 -27 -15 8 -21 -24 -28 -92 -21 -64 7
-71 10 -92 36 -10 13 -9 20 6 40 24 32 52 108 42 114 -4 2 -42 -32 -84 -77
-89 -94 -109 -95 -78 -4 10 31 16 59 12 61 -8 5 -68 -57 -95 -99 -32 -49 -59
-22 -36 36 26 64 51 162 43 170 -18 18 -103 -135 -114 -206 -7 -42 -27 -25
-47 42 -27 86 -44 112 -62 94 -11 -10 -11 -19 0 -47 7 -20 9 -49 5 -72 -13
-72 -17 -72 -82 -6 -62 63 -95 87 -106 76 -12 -13 -5 -33 23 -65 62 -71 31
-78 -100 -24 -33 14 -28 -13 6 -34 42 -26 46 -50 8 -50 -32 0 -95 -66 -71 -75
32 -12 3063 0 3061 12 -4 21 98 29 165 14 1 -1 1 -7 0 -13 -4 -16 100 -24 115
-9 14 14 84 14 92 1 12 -19 83 -12 99 11 l14 21 11 -21 c17 -31 334 -33 350
-2 8 14 5 23 -14 39 -14 12 -25 33 -25 46 0 25 -22 51 -33 39 -4 -3 -7 -1 -7
5 0 22 -48 46 -64 32 -8 -6 -13 -17 -10 -24 2 -6 -4 -12 -14 -12 -14 0 -19 8
-19 27 0 20 5 26 21 24 33 -2 37 4 20 30 -8 13 -22 21 -29 19 -27 -11 -11 41
23 70 21 19 32 36 29 47 -3 10 2 20 10 23 11 5 14 22 11 82 -2 59 0 78 11 82
8 3 11 0 7 -6 -3 -6 -2 -13 3 -16 13 -8 42 29 36 47 -4 8 -2 18 3 21 6 3 17
-13 26 -35 14 -33 19 -39 31 -29 17 14 36 -16 30 -48 -2 -14 5 -28 22 -42 26
-20 52 -18 34 4 -5 6 -6 17 -2 24 14 23 29 -9 27 -55 -2 -36 2 -44 31 -68 18
-14 37 -24 41 -21 5 3 9 -16 9 -42 1 -42 7 -82 19 -121 3 -10 8 -10 18 -2 20
17 24 5 13 -50 -10 -53 -27 -69 -51 -49 -21 17 -43 -24 -25 -46 10 -12 41 -15
166 -13 141 1 180 7 153 24 -17 11 -11 37 8 33 10 -2 17 -13 17 -28 0 -23 4
-25 45 -25 33 0 45 4 45 15 0 10 10 15 30 15 20 0 30 -5 30 -15 0 -12 18 -15
105 -15 79 0 104 3 102 13 -3 17 35 15 42 -3 5 -13 161 -14 1303 -12 l1298 2
3 21 c3 23 -42 54 -79 54 -26 0 -30 13 -14 43 14 28 5 44 -17 30 -7 -4 -15 -8
-18 -9 -3 0 -18 -6 -33 -12 -29 -12 -67 -16 -67 -7 0 6 67 103 87 127 9 10 11
18 4 22 -5 4 -12 2 -16 -4 -3 -5 -13 -10 -21 -10 -19 0 -94 -59 -145 -112 -49
-51 -69 -44 -69 23 0 31 8 66 21 91 27 53 12 70 -29 31 -17 -16 -42 -59 -58
-100 -28 -76 -54 -96 -54 -44 0 41 -12 45 -54 16 -65 -44 -85 -23 -50 52 11
23 14 37 7 44 -11 11 -103 -85 -103 -107 0 -7 -6 -14 -12 -16 -41 -15 -48 29
-22 127 29 107 32 125 23 130 -8 6 -86 -119 -116 -187 -20 -45 -25 -46 -47
-13 -23 35 -36 23 -36 -31 0 -47 -11 -55 -35 -26 -8 9 -30 35 -48 56 -43 49
-67 41 -32 -11 46 -66 37 -81 -46 -77 -54 2 -74 7 -84 20 -11 16 -18 17 -50 7
-62 -19 -72 -9 -56 60 8 31 6 39 -8 47 -18 9 -41 -4 -41 -23 0 -5 -9 -20 -20
-34 -11 -14 -20 -34 -20 -43 0 -36 -48 -30 -100 11 -27 21 -52 35 -55 30 -3
-5 -1 -12 4 -15 7 -5 8 -39 2 -75 -1 -2 -8 2 -16 9 -11 10 -26 8 -70 -5 -49
-16 -93 -17 -450 -12 -221 3 -397 1 -400 -4 -3 -5 -26 -6 -50 -2 -25 3 -50 1
-57 -4 -21 -15 -95 -14 -108 2 -13 16 -34 10 -25 -6 4 -5 2 -9 -4 -9 -5 0 -12
4 -15 9 -8 12 -48 2 -61 -14 -14 -18 -70 -5 -70 15 0 24 -58 25 -79 1 -16 -17
-22 -18 -40 -9 -11 7 -25 12 -31 13 -5 0 -10 8 -10 17 0 24 -25 47 -55 51 -22
4 -25 9 -26 53 -1 32 -6 48 -14 46 -6 -1 -9 2 -5 8 3 5 0 13 -8 15 -14 6 -14
37 -2 137 6 50 -7 71 -25 38 -6 -11 -14 -19 -18 -17 -4 1 -7 -2 -7 -8 0 -5 3
-9 8 -7 10 3 9 -10 -3 -28 -7 -11 -11 -9 -19 13 -13 34 -14 60 -2 53 5 -3 25
12 45 34 34 37 36 44 36 105 0 64 22 133 44 137 6 0 16 2 21 2 28 4 36 18 20
36 -15 16 -14 18 6 23 11 3 32 2 45 -3 28 -11 38 0 36 44 -1 30 1 31 41 32 23
1 49 3 57 5 8 2 15 -3 16 -11 0 -8 2 -18 4 -22 1 -5 3 -12 4 -18 2 -21 19 -14
23 9 2 13 11 29 20 36 11 8 13 14 5 19 -15 9 -16 36 -2 36 6 0 10 -6 10 -13 0
-18 34 -49 43 -40 4 3 7 19 7 35 0 15 5 28 10 28 13 0 13 -61 1 -93 -11 -27 3
-53 29 -59 11 -2 13 6 11 37 -4 57 20 32 25 -26 8 -85 11 -104 22 -131 11 -27
18 -30 75 -30 22 -1 25 -3 16 -14 -6 -8 -8 -14 -4 -14 4 0 2 -6 -4 -14 -7 -8
-8 -17 -3 -20 12 -7 33 17 36 41 2 10 10 17 18 15 8 -1 23 7 33 18 17 19 17
21 2 38 -20 22 -22 53 -4 49 18 -3 27 -20 22 -38 -3 -9 1 -22 10 -29 8 -7 15
-9 15 -5 0 4 6 2 14 -4 23 -19 32 15 12 47 -4 7 -4 25 0 40 4 15 8 31 8 36 1
5 10 10 20 12 24 3 46 26 50 50 2 10 10 18 17 16 7 -2 22 1 33 6 12 6 29 13
40 16 15 5 16 9 6 21 -15 18 19 22 37 4 8 -8 13 -8 17 0 9 14 63 14 71 1 10
-16 24 -2 20 20 -2 11 2 21 8 22 7 0 17 2 22 3 6 2 20 3 33 4 12 0 25 9 28 19
3 9 10 27 16 39 6 11 7 26 4 32 -10 16 -3737 16 -3754 -1 -8 -8 -15 -8 -27 2
-8 7 -16 11 -16 9z m1069 -117 c20 -13 21 -16 6 -27 -47 -34 78 -46 129 -12
14 9 37 17 49 16 23 0 23 0 2 -9 -46 -18 -38 -41 16 -42 16 -1 27 -5 24 -10
-11 -18 28 -20 48 -2 12 11 18 14 14 7 -6 -11 40 -39 79 -48 61 -15 132 -24
153 -18 18 4 23 2 20 -8 -3 -8 -1 -21 3 -31 7 -14 16 -15 48 -9 2 1 -4 12 -13
26 -18 27 1 38 22 13 11 -15 10 -197 -2 -216 -10 -17 18 -26 43 -13 13 7 18
17 14 27 -4 12 0 15 18 12 18 -2 23 -8 21 -23 -2 -11 -3 -31 -3 -44 1 -13 -3
-29 -8 -35 -10 -12 -9 -29 4 -58 4 -10 5 -24 2 -32 -6 -16 16 -40 26 -29 4 3
10 28 13 55 4 31 11 48 20 48 15 0 14 -7 -5 -85 -6 -21 -3 -39 9 -60 16 -29
16 -70 0 -60 -18 11 -21 -17 -4 -36 10 -11 14 -20 9 -19 -22 5 -27 -1 -15 -15
7 -8 16 -13 20 -10 4 2 6 -19 5 -48 -3 -67 -4 -72 -11 -64 -4 3 -16 2 -26 -4
-33 -17 -86 -18 -93 -1 -4 10 -14 13 -35 9 -16 -4 -43 -1 -60 4 -39 14 -67 5
-50 -16 10 -13 8 -15 -13 -15 -16 0 -27 6 -29 17 -3 19 -131 32 -142 14 -3 -5
-21 -6 -41 -1 -20 4 -38 4 -41 -1 -3 -5 -9 -7 -14 -4 -5 3 -21 -2 -35 -11 -24
-16 -27 -16 -44 1 -15 13 -34 16 -89 13 -46 -2 -69 1 -69 8 0 6 -10 28 -22 48
-20 31 -25 34 -43 25 -15 -8 -19 -8 -13 1 4 7 -5 15 -24 23 -27 10 -47 41 -22
35 5 -2 8 1 8 7 -1 5 -6 10 -12 11 -5 0 -16 2 -23 2 -6 1 -11 8 -10 15 2 7 -8
12 -27 12 -28 0 -30 2 -31 42 -1 26 -10 52 -23 69 -11 15 -21 34 -21 44 0 9
-3 20 -7 24 -4 4 -8 15 -8 24 0 9 -6 16 -12 14 -7 -1 -13 5 -13 14 0 13 3 14
14 5 10 -8 16 -8 24 2 14 16 -13 61 -29 51 -6 -3 -9 2 -7 12 2 11 -2 18 -8 17
-17 -3 -12 30 6 44 13 10 13 12 -2 18 -22 9 -23 28 -3 45 9 7 14 22 13 34 -2
13 3 21 12 21 24 0 24 -35 0 -60 -22 -23 -22 -23 -2 -34 21 -11 42 5 56 43 3
11 12 16 21 12 16 -6 58 41 49 56 -3 5 0 15 6 23 9 11 10 19 1 28 -6 8 -8 16
-6 19 3 3 8 16 10 28 6 32 13 36 28 17 11 -16 14 -16 35 -1 18 12 21 19 11 30
-6 8 -8 14 -4 14 4 0 2 6 -4 14 -16 19 77 18 107 -2z m1821 -3 c10 -18 10 -23
0 -30 -19 -11 -29 -2 -29 27 0 30 11 31 29 3z m-1684 -9 c-3 -5 -22 -10 -41
-10 -21 0 -33 4 -29 10 3 6 22 10 41 10 21 0 33 -4 29 -10z m-793 -144 c11 -6
28 -25 39 -43 14 -22 25 -30 36 -26 13 5 15 2 11 -15 -9 -32 30 -52 49 -26 11
16 13 13 13 -27 0 -46 -21 -59 -58 -36 -16 11 -28 -21 -13 -36 6 -6 11 -7 11
-1 0 5 4 3 9 -5 5 -8 6 -24 1 -37 -5 -12 -6 -25 -2 -29 4 -4 8 -11 8 -16 1 -5
2 -12 3 -15 0 -4 8 -1 16 6 20 17 31 -10 16 -39 -8 -14 -8 -22 0 -26 6 -4 8
-13 5 -21 -3 -7 -1 -16 4 -19 6 -4 10 -15 10 -26 0 -23 34 -38 73 -32 15 2 27
0 27 -6 0 -6 -6 -11 -14 -11 -21 0 -40 -26 -25 -35 6 -4 17 -23 25 -41 8 -19
20 -33 26 -31 7 1 14 -6 16 -15 4 -19 -22 -25 -33 -8 -12 19 -24 -1 -19 -29 8
-38 -1 -40 -149 -43 l-118 -3 -34 38 c-27 29 -40 36 -57 32 -20 -5 -26 1 -43
37 -17 37 -24 43 -50 43 -32 0 -48 36 -26 58 19 19 13 58 -9 64 -27 7 -25 39
4 74 23 27 24 27 29 8 3 -13 10 -18 17 -14 6 4 9 14 6 22 -4 9 -2 21 2 27 12
14 33 184 27 214 -3 20 -2 22 10 12 20 -16 45 3 38 29 -3 12 0 19 9 18 7 -1
13 3 13 8 0 10 -4 11 -32 14 -7 0 -13 5 -13 11 0 13 119 10 142 -4z m1628
-404 c-20 -35 -32 -49 -26 -28 4 10 1 26 -6 34 -9 11 -9 14 -1 9 6 -4 14 -3
18 3 11 18 26 0 15 -18z m523 -34 c3 -10 1 -18 -3 -18 -5 0 -15 -3 -24 -6 -13
-5 -16 1 -16 30 0 33 2 35 19 24 11 -7 22 -20 24 -30z m-78 -38 c3 -5 3 -21
-1 -35 -8 -31 -24 -16 -24 23 0 22 14 30 25 12z"/>
<path d="M7801 4407 c-13 -16 -5 -27 20 -27 12 0 19 -9 21 -27 l3 -28 154 -7
c126 -5 156 -9 163 -22 8 -14 33 -16 162 -16 142 0 154 -1 159 -19 10 -38 0
-39 -386 -43 -361 -3 -379 -4 -393 -22 -23 -32 -9 -34 181 -37 99 -1 185 -5
190 -9 21 -15 106 -18 112 -4 3 8 16 14 30 14 22 0 24 -4 21 -37 -3 -38 -3
-38 37 -41 22 -2 44 -8 49 -13 13 -12 63 -12 71 1 3 6 24 10 45 10 21 0 42 -4
45 -10 3 -5 21 -10 40 -10 19 0 37 -4 40 -10 3 -5 21 -10 39 -10 25 0 35 -5
39 -19 4 -17 16 -20 87 -23 97 -4 110 2 110 47 0 19 5 37 10 40 6 3 10 21 10
40 0 19 5 37 10 40 6 4 3 17 -10 35 -28 40 -26 84 6 104 22 15 25 23 22 64
l-3 47 -536 3 c-441 2 -538 0 -548 -11z"/>
<path d="M8904 4405 c-4 -9 -3 -42 1 -73 4 -31 11 -257 14 -502 4 -289 10
-444 16 -442 7 1 10 181 10 514 0 481 -1 513 -18 516 -9 2 -20 -4 -23 -13z"/>
<path d="M7887 3674 c-6 -11 8 -50 22 -59 6 -3 14 1 17 10 7 18 -30 63 -39 49z"/>
<path d="M3075 3659 c-4 -6 3 -22 16 -35 l24 -25 17 21 c20 24 14 48 -7 30 -9
-8 -14 -6 -19 5 -6 17 -22 20 -31 4z"/>
<path d="M1295 3518 c-9 -24 -1 -128 10 -131 13 -3 19 123 6 136 -7 7 -12 5
-16 -5z"/>
<path d="M5342 3437 c-6 -7 -9 -22 -7 -32 2 -11 4 -22 4 -24 1 -3 13 6 27 20
l25 24 18 -23 c16 -22 17 -23 34 -4 18 20 6 45 -18 36 -7 -3 -16 -1 -20 5 -9
15 -50 14 -63 -2z"/>
</g>
<g transform="translate(0.000000,1024.000000) scale(0.100000,-0.100000)" fill="url(#sun)">
<path d="M4820 7176 c-636 -81 -1154 -347 -1573 -806 -619 -678 -785 -1694
-407 -2496 103 -219 236 -383 216 -266 -20 116 -49 401 -49 492 -1 98 2 113
41 227 50 144 51 158 13 322 -34 144 -56 278 -67 394 -5 67 -9 77 -20 65 -49
-49 -78 -252 -49 -348 75 -256 72 -322 -19 -418 -64 -69 -109 -76 -121 -20 -4
18 -19 56 -33 83 -50 99 -39 233 28 338 30 47 31 52 34 190 7 233 76 404 214
528 105 94 241 149 541 219 98 23 136 37 366 139 77 35 157 70 178 78 43 19
39 29 -18 41 l-40 9 70 32 c450 209 728 289 1036 298 194 6 281 -5 408 -53
139 -52 400 -231 571 -392 83 -77 88 -80 145 -87 169 -20 311 -58 420 -113
327 -163 498 -543 329 -731 l-43 -47 -3 -240 c-3 -233 -4 -240 -28 -282 -36
-64 -121 -101 -344 -149 -37 -8 -39 -10 -70 -98 -18 -50 -43 -110 -56 -135
l-23 -44 -16 44 c-22 59 -31 56 -55 -17 -11 -35 -23 -63 -27 -63 -27 0 -169
183 -233 301 l-28 53 -30 -58 -30 -59 -27 42 c-31 47 -33 46 -94 -31 -36 -45
-40 -47 -83 -46 -64 3 -68 -6 -83 -189 -7 -87 -15 -165 -17 -174 -3 -13 108
-162 165 -221 4 -4 128 3 276 17 551 51 1036 95 1055 95 47 0 212 309 273 510
405 1338 -399 2681 -1803 3015 -244 58 -652 81 -890 51z"/>
<path d="M4062 4163 c-33 -48 -81 -112 -107 -141 l-48 -53 16 -63 c50 -201 61
-225 145 -303 l78 -71 195 -17 c107 -9 263 -22 348 -30 85 -8 173 -15 196 -15
l42 0 -43 173 c-24 94 -48 183 -54 197 l-12 24 -17 -23 -18 -23 -11 28 c-6 16
-23 85 -38 154 -14 69 -27 126 -28 127 -1 1 -85 16 -186 34 -165 28 -335 65
-382 84 -13 5 -30 -14 -76 -82z"/>
<path d="M3437 4071 c-53 -55 -57 -63 -57 -108 0 -26 -11 -94 -25 -151 -33
-135 -33 -130 28 -189 l52 -51 153 -6 153 -7 -15 33 c-8 18 -39 87 -68 153
-30 66 -77 180 -104 253 -27 72 -51 132 -55 132 -3 0 -31 -27 -62 -59z"/>
<path d="M5256 3892 c-9 -14 -56 -191 -56 -210 0 -10 20 -54 45 -98 25 -43 48
-87 51 -96 3 -10 13 -18 22 -19 36 -2 187 3 191 7 2 2 -2 47 -10 99 l-13 97
-47 23 c-33 17 -54 38 -75 72 -58 100 -96 144 -108 125z"/>
</g>
<g transform="translate(0.000000,1024.000000) scale(0.100000,-0.100000)" fill="#fbeb9a">
<path d="M6097 5505 c-127 -126 -126 -330 1 -419 53 -37 141 -47 190 -22 26
13 72 74 60 79 -157 77 -203 146 -203 305 0 56 -1 102 -2 102 -1 0 -22 -20
-46 -45z"/>
</g>
<circle cx="651" cy="539" r="5.3" fill="#f3ac43"/>
<g fill="#eae4b2">
<path d="M748.1 205.9Q748.1 212.7 754.9 212.7Q748.1 212.7 748.1 219.4Q748.1 212.7 741.4 212.7Q748.1 212.7 748.1 205.9Z"/>
<path d="M278.7 233.5Q278.7 240.5 285.7 240.5Q278.7 240.5 278.7 247.5Q278.7 240.5 271.7 240.5Q278.7 240.5 278.7 233.5Z"/>
<path d="M232.0 282.1Q232.0 289.1 239.0 289.1Q232.0 289.1 232.0 296.1Q232.0 289.1 225.0 289.1Q232.0 289.1 232.0 282.1Z"/>
</g>
</g>
<rect x="129" y="129" width="766" height="766" rx="143" fill="none" stroke="url(#edge)" stroke-width="2"/>
</svg>